<svg width="100" height="80" viewBox="0 0 100 80" fill="none" xmlns="http://www.w3.org/2000/svg">
<path d="M27.5754 4.62748C21.5696 3.49991 8.16033 8.08518 7.90095 9.45689C7.6447 10.8302 18.4752 19.9687 24.4812 21.0964C30.4902 22.224 36.0502 19.453 36.9048 14.9043C37.7593 10.3573 33.5814 5.75524 27.5754 4.62748Z" fill="#A0D468"/>
<path d="M45.2268 3.55184C46.0386 2.73854 46.0356 1.42171 45.2237 0.609975C44.409 -0.203325 43.0906 -0.203325 42.2789 0.609975C42.2758 0.611538 42.2758 0.6131 42.2728 0.6131C42.1691 0.718376 39.6788 3.23152 37.277 6.77301C33.9111 11.7323 32.4095 16.1512 32.8215 19.9079L36.9626 19.4563C36.3522 13.8577 42.7123 6.08647 45.2237 3.55672C45.2268 3.55497 45.2268 3.5534 45.2268 3.55184Z" fill="#434A54"/>
<path d="M33.3649 71.4443C32.5532 72.2591 32.5532 73.5775 33.3649 74.3891C34.1798 75.2039 35.4982 75.2039 36.3128 74.3891C37.1246 73.5775 37.1246 72.2591 36.3128 71.4443C35.4982 70.6294 34.1798 70.6294 33.3649 71.4443Z" fill="#434A54"/>
<path d="M34.8909 16.7293C14.1021 7.59082 0 21.9525 0 42.2817C0 62.6034 19.1893 80.5814 34.8909 73.5043C50.5951 80.5812 69.7817 62.6032 69.7817 42.2817C69.7815 21.9525 55.6824 7.59082 34.8909 16.7293Z" fill="#DA4453"/>
<g opacity="0.1">
<path d="M39.0593 73.5043C38.3696 73.8156 37.6737 74.0748 36.9749 74.2914C39.3858 75.033 41.8517 75.2283 44.2961 74.9537C42.5293 74.7492 40.7714 74.2762 39.0593 73.5043Z" fill="black"/>
<path d="M4.16865 42.2817C4.16865 27.0489 12.0849 15.1652 24.8018 14.0119C9.67093 12.704 0 25.4467 0 42.2817C0 60.3848 15.2283 76.6292 29.6538 74.9537C16.6076 73.4891 4.16865 58.6452 4.16865 42.2817Z" fill="black"/>
</g>
<path d="M70.8344 79.1683C86.9416 79.1683 99.9999 66.11 99.9999 49.9996H41.6687C41.6687 66.11 54.727 79.1683 70.8344 79.1683Z" fill="#ED5564"/>
<path d="M70.8344 74.9994C84.6406 74.9994 95.8342 63.8087 95.8342 49.9996H45.8342C45.8342 63.8087 57.028 74.9994 70.8344 74.9994Z" fill="#FFE7B0"/>
<path d="M71.1307 64.584C79.1871 64.584 85.715 58.0561 85.715 49.9996H56.5491C56.5491 58.0561 63.0768 64.584 71.1307 64.584Z" fill="#EDCA8C"/>
<path d="M69.3604 51.4735C70.1752 52.2884 71.4936 52.2884 72.3083 51.4735C72.7142 51.0676 72.9186 50.5336 72.9186 49.9996H68.75C68.75 50.5336 68.9545 51.0676 69.3604 51.4735Z" fill="#434A54"/>
</svg>
