<svg width="98" height="85" viewBox="0 0 98 85" fill="none" xmlns="http://www.w3.org/2000/svg">
<path d="M80.0322 31.1664C78.0054 26.5053 73.9553 22.6614 68.6604 20.9879C62.9125 19.173 56.9211 20.2033 51.2321 21.6168C51.1241 18.8196 51.3869 16.0143 51.8285 13.2448C52.0788 11.6818 53.277 8.4484 50.3046 8.33779C47.8375 8.24565 47.8306 11.2179 47.5904 12.7337C47.1263 15.6415 46.852 18.5882 46.9408 21.5277C45.5741 21.3229 44.2246 20.865 42.8633 20.611C40.8332 20.2341 38.7655 19.9985 36.6909 19.9964C32.6932 19.9964 28.7478 20.9499 25.458 23.0322C19.0695 27.0779 16.5818 34.1369 16.6899 40.9191C16.8082 48.2627 19.5712 55.2754 24.2198 61.2651C26.2716 63.9096 28.6306 66.4456 31.5462 68.3536C34.3797 70.2074 37.5444 71.076 40.98 71.5183C42.4388 71.7079 43.924 71.713 45.3782 71.499C46.6481 71.3127 47.8374 70.8302 49.0971 70.6386C50.0485 70.4942 51.3902 71.1681 52.3107 71.3524C53.88 71.67 55.4947 71.7355 57.0936 71.5716C62.944 70.9715 67.579 68.5963 71.4288 64.6141C79.8957 55.8563 84.9414 42.4482 80.0322 31.1664ZM76.1744 49.1272C75.0922 52.542 73.3796 55.6638 71.1651 58.593C69.2044 61.1864 66.9318 63.7561 64.0186 65.5279C61.3432 67.1533 57.7222 68.0413 54.496 67.775C52.855 67.6408 51.3609 66.9311 49.7314 66.7917C47.9071 66.6372 46.2208 67.5158 44.4421 67.734C37.448 68.5903 31.9243 64.3143 28.1315 59.5752C23.4784 53.7597 20.7175 46.8114 20.9804 39.5856C21.2217 32.9641 24.7289 26.1316 32.3864 24.3186C36.2169 23.4133 40.251 23.9336 44.0233 24.8073C45.6564 25.1832 47.3417 25.7936 49.0362 25.8755C50.3403 26.0106 51.7753 25.474 53.0077 25.1687C60.3864 23.3416 68.6935 22.899 73.8315 28.9788C78.5768 34.5925 78.224 42.6725 76.1744 49.1272Z" fill="black"/>
<path d="M44.4811 14.3529C44.7553 7.09525 35.6356 5.9615 32.3821 7.40457C33.2299 15.7744 40.3252 15.9587 44.4811 14.3529Z" fill="black"/>
<path d="M8.52783 30.35V20.225C8.52783 10.1405 16.7279 2 26.8861 2H37.0851" stroke="black" stroke-width="4" stroke-linecap="round" stroke-linejoin="round"/>
<path d="M61.5627 2H71.7618C81.92 2 90.12 10.1405 90.12 20.225V30.35" stroke="black" stroke-width="4" stroke-linecap="round" stroke-linejoin="round"/>
<path d="M90.1198 58.7V64.775C90.1198 74.8595 81.9197 82.9999 71.7615 82.9999H65.6421" stroke="black" stroke-width="4" stroke-linecap="round" stroke-linejoin="round"/>
<path d="M37.0851 83.0001H26.8861C16.7279 83.0001 8.52783 74.8596 8.52783 64.7751V54.6501" stroke="black" stroke-width="4" stroke-linecap="round" stroke-linejoin="round"/>
<path d="M96 43.8064L2 43.8064" stroke="#3BD752" stroke-width="4" stroke-linecap="round" stroke-linejoin="round"/>
</svg>
