<svg width="76" height="66" viewBox="0 0 76 66" fill="none" xmlns="http://www.w3.org/2000/svg">
<path d="M61.7696 24.325C60.2172 20.7572 57.1149 17.815 53.0592 16.534C48.6566 15.1448 44.0674 15.9335 39.71 17.0154C39.6272 14.8743 39.8285 12.7271 40.1667 10.6072C40.3585 9.41085 41.2763 6.93588 38.9995 6.85121C37.1098 6.78069 37.1046 9.05571 36.9206 10.216C36.5651 12.4417 36.355 14.6972 36.423 16.9472C35.3762 16.7904 34.3425 16.4399 33.2998 16.2455C31.7448 15.957 30.1611 15.7767 28.572 15.7751C25.51 15.7751 22.488 16.5049 19.9681 18.0988C15.0748 21.1955 13.1693 26.5987 13.2521 31.79C13.3427 37.411 15.4591 42.7788 19.0197 47.3635C20.5913 49.3877 22.3981 51.3288 24.6314 52.7893C26.8017 54.2082 29.2257 54.8731 31.8573 55.2116C32.9747 55.3568 34.1123 55.3606 35.2261 55.1968C36.1988 55.0542 37.1097 54.6849 38.0746 54.5383C38.8034 54.4277 39.831 54.9436 40.5361 55.0846C41.7381 55.3277 42.975 55.3779 44.1996 55.2524C48.6808 54.793 52.231 52.975 55.1797 49.9269C61.665 43.2234 65.5299 32.9605 61.7696 24.325ZM58.8147 38.0728C57.9858 40.6865 56.674 43.0761 54.9778 45.3181C53.476 47.3032 51.7353 49.2702 49.5039 50.6263C47.4546 51.8705 44.6811 52.5502 42.21 52.3464C40.953 52.2437 39.8086 51.7004 38.5605 51.5937C37.1632 51.4754 35.8715 52.148 34.5091 52.315C29.1519 52.9704 24.921 49.6974 22.0159 46.07C18.4518 41.6186 16.3371 36.3001 16.5384 30.7693C16.7232 25.701 19.4096 20.4712 25.2749 19.0835C28.209 18.3905 31.2989 18.7888 34.1883 19.4575C35.4392 19.7452 36.7301 20.2124 38.028 20.2751C39.0269 20.3786 40.126 19.9678 41.07 19.7342C46.7217 18.3356 53.0847 17.9968 57.0202 22.6505C60.6548 26.9474 60.3846 33.1321 58.8147 38.0728Z" fill="#FBFCFF"/>
<path d="M34.5388 11.4554C34.7488 5.90014 27.7636 5.03233 25.2715 6.1369C25.9209 12.5435 31.3556 12.6845 34.5388 11.4554Z" fill="#FBFCFF"/>
<path d="M7 23.7V15.95C7 8.231 13.2809 2 21.0616 2H28.8737" stroke="#FBFCFF" stroke-width="4" stroke-linecap="round" stroke-linejoin="round"/>
<path d="M47.6226 2H55.4346C63.2154 2 69.4962 8.231 69.4962 15.95V23.7" stroke="#FBFCFF" stroke-width="4" stroke-linecap="round" stroke-linejoin="round"/>
<path d="M69.4959 45.3999V50.0499C69.4959 57.7689 63.2151 63.9999 55.4343 63.9999H50.7471" stroke="#FBFCFF" stroke-width="4" stroke-linecap="round" stroke-linejoin="round"/>
<path d="M28.8737 64H21.0616C13.2809 64 7 57.769 7 50.05V42.3" stroke="#FBFCFF" stroke-width="4" stroke-linecap="round" stroke-linejoin="round"/>
<path d="M74 34L2 34" stroke="black" stroke-width="4" stroke-linecap="round" stroke-linejoin="round"/>
</svg>
