<svg width="34" height="34" viewBox="0 0 34 34" fill="none" xmlns="http://www.w3.org/2000/svg">
<path d="M19.5915 4.16627L22.2312 9.48932C22.5911 10.2303 23.551 10.9411 24.3609 11.0772L29.1454 11.8786C32.2051 12.3928 32.925 14.6309 30.7202 16.8387L27.0006 20.5891C26.3707 21.2242 26.0258 22.4491 26.2207 23.3262L27.2856 27.9687C28.1255 31.6435 26.1907 33.065 22.9661 31.1444L18.4816 28.4678C17.6717 27.9839 16.3368 27.9839 15.5119 28.4678L11.0274 31.1444C7.81775 33.065 5.86796 31.6283 6.70787 27.9687L7.77275 23.3262C7.96773 22.4491 7.62277 21.2242 6.99284 20.5891L3.27326 16.8387C1.0835 14.6309 1.78842 12.3928 4.84808 11.8786L9.63254 11.0772C10.4275 10.9411 11.3873 10.2303 11.7473 9.48932L14.3871 4.16627C15.8269 1.27791 18.1666 1.27791 19.5915 4.16627Z" stroke="#292C34" stroke-width="4" stroke-linecap="round" stroke-linejoin="round"/>
</svg>
