<svg width="34" height="34" viewBox="0 0 34 34" fill="none" xmlns="http://www.w3.org/2000/svg">
<path d="M6.5 14H9.5C12.5 14 14 12.5 14 9.5V6.5C14 3.5 12.5 2 9.5 2H6.5C3.5 2 2 3.5 2 6.5V9.5C2 12.5 3.5 14 6.5 14Z" stroke="#292C34" stroke-width="4" stroke-miterlimit="10" stroke-linecap="round" stroke-linejoin="round"/>
<path d="M24.5 14H27.5C30.5 14 32 12.5 32 9.5V6.5C32 3.5 30.5 2 27.5 2H24.5C21.5 2 20 3.5 20 6.5V9.5C20 12.5 21.5 14 24.5 14Z" stroke="#292C34" stroke-width="4" stroke-miterlimit="10" stroke-linecap="round" stroke-linejoin="round"/>
<path d="M24.5 32H27.5C30.5 32 32 30.5 32 27.5V24.5C32 21.5 30.5 20 27.5 20H24.5C21.5 20 20 21.5 20 24.5V27.5C20 30.5 21.5 32 24.5 32Z" stroke="#292C34" stroke-width="4" stroke-miterlimit="10" stroke-linecap="round" stroke-linejoin="round"/>
<path d="M6.5 32H9.5C12.5 32 14 30.5 14 27.5V24.5C14 21.5 12.5 20 9.5 20H6.5C3.5 20 2 21.5 2 24.5V27.5C2 30.5 3.5 32 6.5 32Z" stroke="#292C34" stroke-width="4" stroke-miterlimit="10" stroke-linecap="round" stroke-linejoin="round"/>
</svg>
