<svg width="29" height="36" viewBox="0 0 29 36" fill="none" xmlns="http://www.w3.org/2000/svg">
<path d="M14.491 16.3281C14.3077 16.312 14.0877 16.312 13.8861 16.3281C9.52388 16.1989 6.05981 13.049 6.05981 9.17214C6.05981 5.21454 9.68884 2 14.1977 2C18.6882 2 22.3355 5.21454 22.3355 9.17214C22.3172 13.049 18.8531 16.1989 14.491 16.3281Z" stroke="#292C34" stroke-width="4" stroke-linecap="round" stroke-linejoin="round"/>
<path d="M5.32661 22.2887C0.891131 24.9056 0.891131 29.1701 5.32661 31.7708C10.3669 34.7431 18.6331 34.7431 23.6734 31.7708C28.1089 29.154 28.1089 24.8895 23.6734 22.2887C18.6514 19.3327 10.3852 19.3327 5.32661 22.2887Z" stroke="#292C34" stroke-width="4" stroke-linecap="round" stroke-linejoin="round"/>
</svg>
