<svg width="34" height="34" viewBox="0 0 34 34" fill="none" xmlns="http://www.w3.org/2000/svg">
<path d="M2 12.5V8.75C2 5.015 5.015 2 8.75 2H12.5" stroke="#292C34" stroke-width="4" stroke-linecap="round" stroke-linejoin="round"/>
<path d="M21.5 2H25.25C28.985 2 32 5.015 32 8.75V12.5" stroke="#292C34" stroke-width="4" stroke-linecap="round" stroke-linejoin="round"/>
<path d="M32 23V25.25C32 28.985 28.985 32 25.25 32H23" stroke="#292C34" stroke-width="4" stroke-linecap="round" stroke-linejoin="round"/>
<path d="M12.5 32H8.75C5.015 32 2 28.985 2 25.25V21.5" stroke="#292C34" stroke-width="4" stroke-linecap="round" stroke-linejoin="round"/>
<path d="M24.5 13.25V20.75C24.5 23.75 23 25.25 20 25.25H14C11 25.25 9.5 23.75 9.5 20.75V13.25C9.5 10.25 11 8.75 14 8.75H20C23 8.75 24.5 10.25 24.5 13.25Z" stroke="#292C34" stroke-width="4" stroke-linecap="round" stroke-linejoin="round"/>
<path d="M27.5 17H6.5" stroke="#292C34" stroke-width="4" stroke-linecap="round" stroke-linejoin="round"/>
</svg>
